PathFileType	4	(X/Y/Z)	 s04c0103.trc
DataRate	CameraRate	NumFrames	NumMarkers	Units	OrigDataRate	OrigDataStartFrame	OrigNumFrames
200	200	5	50	mm	200	1501	2000
Frame#	Time	racr			lacr			c7			jug			rlel			rdr			llel			ldr			s2			lic			ric			lasi			rasi			rpsi			lpsi			rgt			lgt			rth1			rth2			rth3			rth4			rlfc			rmfc			rsh1			rsh2			rsh3			rsh4			rlmal			rmmal			rcal			rtoe			rmt5			lth1			lth2			lth4			lth3			llfc			lmfc			lsh1			lsh2			lsh3			lsh4			llmal			lmmal			lcal			ltoe			lmt5			SBIKE			LBIKE			RBIKE			
		X1	Y1	Z1	X2	Y2	Z2	X3	Y3	Z3	X4	Y4	Z4	X5	Y5	Z5	X6	Y6	Z6	X7	Y7	Z7	X8	Y8	Z8	X9	Y9	Z9	X10	Y10	Z10	X11	Y11	Z11	X12	Y12	Z12	X13	Y13	Z13	X14	Y14	Z14	X15	Y15	Z15	X16	Y16	Z16	X17	Y17	Z17	X18	Y18	Z18	X19	Y19	Z19	X20	Y20	Z20	X21	Y21	Z21	X22	Y22	Z22	X23	Y23	Z23	X24	Y24	Z24	X25	Y25	Z25	X26	Y26	Z26	X27	Y27	Z27	X28	Y28	Z28	X29	Y29	Z29	X30	Y30	Z30	X31	Y31	Z31	X32	Y32	Z32	X33	Y33	Z33	X34	Y34	Z34	X35	Y35	Z35	X36	Y36	Z36	X37	Y37	Z37	X38	Y38	Z38	X39	Y39	Z39	X40	Y40	Z40	X41	Y41	Z41	X42	Y42	Z42	X43	Y43	Z43	X44	Y44	Z44	X45	Y45	Z45	X46	Y46	Z46	X47	Y47	Z47	X48	Y48	Z48	X49	Y49	Z49	X50	Y50	Z50	
1501	7.5050	494.029749	1345.259097	-121.184287	514.388077	1330.984344	-399.589461	488.702586	1403.500055	-263.984804	444.944768	1247.886918	-265.292626	461.287838	1067.088795	35.518560	688.969677	916.504264	-71.569011	466.892776	1071.699037	-540.315086	698.750296	926.086255	-456.064692	-68.442753	1161.331791	-287.341335	85.859898	1187.070294	-436.254053	75.106389	1184.686792	-114.057650	131.032303	1146.690495	-388.904149	127.607731	1142.755767	-157.176538	-49.173719	1207.847888	-239.419933	-46.111526	1210.848535	-316.438985	35.204116	1117.649629	-98.350584	69.416178	1089.799307	-458.281863	152.041634	1017.948993	-65.130541	229.762120	976.038414	-61.257366	277.487500	906.218181	-50.360302	253.224595	1000.193821	-77.688030	358.350247	789.908647	-60.058365	358.227403	771.469602	-174.358661	261.031639	713.273460	-52.306674	210.706418	641.172853	-79.221037	132.803631	611.583068	-100.497204	236.687726	620.273512	-98.970152	25.955571	507.718020	-128.612218	62.964599	503.839190	-208.359990	-42.292247	518.316657	-180.752874	193.286710	331.400983	-143.813062	118.072586	350.489834	-98.741677	132.315513	1017.912367	-466.579118	210.793916	980.840842	-463.647265	233.452555	1008.384019	-455.260024	261.448362	907.857975	-459.450645	369.324423	787.077278	-434.283764	391.493745	766.230167	-322.275692	364.000038	664.200404	-458.494295	366.065442	578.947501	-439.837558	328.218812	499.008986	-443.554195	391.506277	575.874940	-409.221043	293.639461	354.563439	-445.977704	282.954440	352.611979	-357.929351	210.747727	327.505051	-413.086796	511.745763	323.764841	-394.664109	447.947163	284.292767	-461.683003	-176.897608	933.954010	-279.895102	-3.365269	85.462689	-484.784490	-15.053903	80.331666	-84.251119	
1502	7.5100	494.679574	1346.368166	-120.530813	515.323629	1331.638628	-399.207534	489.798056	1404.144049	-263.497474	445.568826	1248.682720	-264.399338	461.895069	1068.117424	35.814201	689.287336	917.061129	-71.684788	468.276657	1072.910124	-541.424358	699.073804	926.066641	-456.344040	-67.539604	1162.993996	-288.232007	86.970294	1188.002771	-437.016848	75.030590	1186.216305	-115.893312	132.071620	1147.509501	-389.992734	127.700653	1144.392968	-157.937092	-48.404248	1209.787609	-240.122954	-45.068596	1211.995633	-318.839596	35.436104	1120.532222	-98.599561	69.169190	1090.439007	-458.636949	153.094730	1022.338944	-65.675696	231.502940	981.734099	-61.412248	280.459378	912.834464	-49.809511	254.374215	1005.540651	-78.879386	362.513671	797.422914	-59.182503	363.659102	779.165386	-173.849538	264.786527	721.755314	-51.710357	213.948565	650.135722	-78.901620	135.902539	621.110447	-100.366575	239.872444	629.079886	-98.511285	28.489968	518.086107	-128.891164	64.644455	514.143367	-208.906778	-39.792820	528.644342	-181.069310	195.992210	342.192574	-143.826917	120.786503	361.288235	-98.614991	130.400849	1016.729266	-467.000828	207.885186	977.549094	-464.570161	231.328682	1004.535975	-456.327752	256.530350	903.247418	-460.395974	362.317947	779.459091	-435.923615	385.456404	758.195541	-322.913619	358.961665	655.594292	-459.661473	361.769842	570.511232	-440.701210	324.808406	490.187328	-444.789815	386.785724	567.907137	-409.702297	291.791520	345.291859	-447.472016	280.387941	343.167253	-359.621439	208.713072	318.530359	-415.332332	509.531824	312.645248	-393.632618	446.123503	273.770248	-461.464340	-176.912533	933.975963	-280.035253	-3.356282	85.489859	-484.781610	-15.037149	80.341428	-84.259536	
1503	7.5150	495.346156	1347.458143	-119.794541	516.372986	1332.224677	-398.717857	490.939005	1404.772228	-262.951045	446.270322	1249.456107	-263.458000	462.659694	1069.140696	36.073164	689.669312	917.583101	-71.909095	469.701939	1074.291226	-542.173822	699.503285	925.956791	-456.564360	-66.565764	1164.659893	-289.121367	88.160259	1188.995325	-437.823398	75.054379	1187.883703	-116.771494	133.054891	1148.164726	-390.773520	127.783731	1146.114420	-158.820692	-47.657419	1211.647516	-241.057235	-43.663467	1213.470733	-320.367027	35.673291	1123.713812	-98.976279	68.873109	1090.726950	-459.011652	153.976995	1026.927188	-66.388636	233.063070	987.745148	-61.772758	283.254146	919.884383	-49.400802	255.516330	1011.738179	-79.580974	366.644318	805.294800	-58.427684	368.175067	786.757229	-173.009526	268.700976	730.379786	-51.218885	217.509438	659.071895	-78.376788	139.285163	630.572986	-100.217811	243.243382	637.534507	-97.281534	31.423662	528.201508	-129.159119	67.028719	524.223786	-209.350718	-36.980918	538.667742	-181.253045	199.209046	353.011510	-144.009646	124.156467	372.388546	-98.059152	128.477493	1015.470685	-467.573708	204.965653	974.228095	-465.525762	229.108817	1000.578457	-457.465673	251.641747	898.670584	-461.359481	354.709899	771.596551	-437.335027	377.634499	750.097969	-324.227188	352.917627	647.151574	-460.810436	356.548352	562.117529	-441.907048	320.536914	481.417273	-446.150224	381.362483	559.601933	-410.383476	289.331761	336.032281	-448.885770	276.879288	334.007325	-361.489238	205.991682	309.676701	-417.433225	506.625543	301.668039	-392.897192	443.562652	263.289663	-461.353194	-176.840406	934.057222	-280.494734	-3.352680	85.492307	-484.797479	-15.046403	80.371170	-84.263600	
1504	7.5200	495.945138	1348.460050	-119.041075	517.578709	1332.904678	-397.989813	492.092764	1405.361857	-262.242926	447.081911	1250.165172	-262.496719	463.445946	1070.067846	36.123857	690.412033	918.387354	-72.430249	471.483294	1075.626507	-542.904189	700.008474	925.730863	-456.727369	-65.755060	1166.738245	-290.198089	89.499325	1189.780495	-438.600946	75.063307	1189.505426	-117.847305	134.040381	1148.786587	-391.343707	127.777851	1147.937906	-159.701158	-43.299310	1212.855530	-244.706267	-42.817948	1215.175086	-319.757606	35.898318	1127.167444	-99.311208	68.625919	1090.697603	-459.377998	154.733994	1031.664883	-67.346927	234.466113	993.965637	-62.240957	285.840072	927.171087	-49.083951	256.571963	1018.208507	-80.298330	370.954436	813.379153	-57.719501	372.418489	794.155261	-172.374043	272.950416	738.925161	-50.754742	221.303923	668.013510	-78.054092	143.001079	640.008208	-100.053952	247.716374	646.266915	-96.597498	34.912775	538.139231	-129.253947	69.816191	534.260422	-209.609222	-33.578363	548.152056	-181.272397	203.241203	363.802187	-144.061489	127.992676	382.493835	-98.283694	126.640283	1014.187331	-468.250150	202.031318	970.888648	-466.551446	226.876065	996.628677	-458.612855	246.533523	893.913257	-461.788774	346.566200	763.887831	-438.848110	368.788123	741.619076	-326.053716	345.658476	638.764439	-461.836171	350.411435	553.799270	-443.344414	315.278127	472.736276	-447.743630	375.193099	551.811956	-411.816024	286.115195	326.721399	-450.165478	272.957872	325.066022	-363.017050	202.584263	301.043246	-419.183192	502.985871	291.018756	-392.418750	440.259058	252.981712	-461.245397	-176.975157	934.003743	-280.030754	-3.354929	85.500098	-484.798887	-15.024159	80.363078	-84.266825	
1505	7.5250	496.515431	1349.528737	-118.091517	518.855227	1333.457476	-397.102447	493.273028	1405.932193	-261.400510	447.898185	1250.862533	-261.314600	464.368279	1071.084122	36.214126	690.873471	918.787998	-72.693409	473.416717	1077.015075	-543.406830	700.602198	925.450765	-456.825205	-64.945094	1168.570101	-291.318184	91.041688	1190.590354	-439.482568	74.933041	1191.272141	-118.895389	135.209550	1149.325467	-392.092165	127.838196	1149.889151	-160.419328	-43.136772	1215.543418	-246.151873	-40.860682	1217.195998	-321.387356	35.902512	1130.782323	-99.712501	68.456870	1090.450753	-459.720717	155.278377	1036.582489	-68.448322	235.756306	1000.368507	-62.698577	288.180683	934.787353	-48.904211	257.439171	1024.866290	-80.983616	375.386274	821.734402	-57.063434	376.927305	803.077371	-171.376388	277.352876	747.667256	-50.381411	225.393479	676.878011	-77.787445	147.019718	649.208820	-99.817467	251.722242	655.099612	-96.251306	38.680895	547.673836	-129.367807	74.790745	543.723113	-209.505654	-29.959237	557.493993	-181.293416	207.678579	374.325696	-144.147980	132.557850	392.673319	-98.234049	124.866332	1012.770643	-469.052502	199.028782	967.470013	-467.564799	224.605727	992.486878	-459.748162	241.426585	889.326494	-463.252743	338.368486	756.100771	-440.261323	359.474388	733.475144	-327.926792	337.746355	630.525259	-463.430398	343.525867	545.662076	-444.961740	309.288250	464.090283	-449.163502	368.271093	544.226564	-413.486547	282.075636	317.603978	-451.368056	268.865285	316.133122	-364.095387	198.612616	292.684274	-420.641271	498.778297	280.557184	-391.861980	436.193149	242.946087	-461.210236	-176.892438	934.039637	-279.946622	-3.340950	85.506903	-484.818962	-15.026636	80.376339	-84.283397	
